<svg width="105" height="38" viewBox="0 0 105 38" fill="none" xmlns="http://www.w3.org/2000/svg">
<g clip-path="url(#clip0_1_47)">
<path d="M32.2329 14.0454V17.136H34.4855C35.4906 17.136 36.3055 17.9399 36.3055 18.9315C36.3055 19.923 35.4906 20.727 34.4855 20.727H32.2329V31.853H28.5929V20.727C27.6948 20.727 26.9668 20.0088 26.9668 19.1228V18.7402C26.9668 17.8542 27.6948 17.136 28.5929 17.136V14.0454C28.5929 13.2017 28.8017 12.4315 29.2194 11.7349C29.647 11.0285 30.2189 10.4692 30.935 10.0571C31.6511 9.63526 32.4417 9.42432 33.307 9.42432C33.9335 9.42432 34.5551 9.55186 35.1717 9.80696C36.3376 10.2893 36.7856 11.9226 35.8145 12.7212C35.1592 13.2601 34.3895 13.0153 33.307 13.0153C33.0185 13.0153 32.7649 13.1183 32.5461 13.3243C32.3373 13.5205 32.2329 13.7609 32.2329 14.0454Z" fill="white"/>
<path d="M38.7267 31.8531V13.3685C38.7267 11.3853 40.3564 9.77759 42.3667 9.77759V31.8531H38.7267Z" fill="white"/>
<path d="M62.9844 31.8529V17.136H65.2967C66.0299 17.136 66.6244 17.7224 66.6244 18.4458C67.1316 17.916 67.7382 17.4989 68.4444 17.1948C69.1505 16.8808 69.9114 16.7239 70.7268 16.7239C71.7612 16.7239 72.7109 16.9643 73.5762 17.445C74.4513 17.9257 75.1476 18.5685 75.6647 19.3729C76.1917 18.5685 76.888 17.9257 77.7532 17.445C78.6185 16.9643 79.5682 16.7239 80.6026 16.7239C81.6966 16.7239 82.6861 16.9888 83.5713 17.5186C84.4663 18.0386 85.1774 18.7401 85.7045 19.6231C86.2416 20.4964 86.5101 21.4725 86.5101 22.5518V31.8529H82.8701V23.5084C82.8701 22.9394 82.726 22.4193 82.4375 21.9484C82.1591 21.4677 81.7811 21.0851 81.3037 20.8005C80.8362 20.5061 80.3092 20.359 79.7224 20.359C79.1356 20.359 78.6035 20.5012 78.1262 20.7858C77.6587 21.0604 77.2809 21.4333 76.9924 21.9043C76.7039 22.3752 76.5598 22.91 76.5598 23.5084V31.8529H72.9198V23.5084C72.9198 22.91 72.7805 22.3752 72.5021 21.9043C72.2237 21.4333 71.8457 21.0604 71.3683 20.7858C70.8909 20.5012 70.3589 20.359 69.7721 20.359C69.1953 20.359 68.6681 20.5061 68.1908 20.8005C67.7134 21.0851 67.3305 21.4677 67.0421 21.9484C66.7637 22.4193 66.6244 22.9394 66.6244 23.5084V31.8529H62.9844Z" fill="white"/>
<path d="M92.8392 34.2053C92.8392 36.1886 91.2094 37.7962 89.1992 37.7962V17.1359H90.9446C91.9909 17.1359 92.8392 17.9726 92.8392 19.0049C94.564 16.6436 97.573 16.2408 100.194 17.3566C101.139 17.7589 101.969 18.3182 102.685 19.0344C103.411 19.7408 103.973 20.56 104.371 21.4921C104.779 22.4242 104.982 23.425 104.982 24.4944C104.982 25.5637 104.779 26.5695 104.371 27.5113C103.973 28.4532 103.411 29.2823 102.685 29.9985C101.969 30.7049 101.139 31.2592 100.194 31.6615C98.1652 32.5252 94.571 32.2774 92.8392 30.5793V34.2053ZM97.0909 20.2117C96.3349 20.2117 95.6587 20.408 95.062 20.8004C94.4653 21.183 93.9978 21.6981 93.6597 22.3457C93.3215 22.9932 93.1525 23.7094 93.1525 24.4944C93.1525 25.2793 93.3215 26.0004 93.6597 26.6578C93.9978 27.3053 94.4653 27.8254 95.062 28.2178C95.6587 28.6004 96.3349 28.7917 97.0909 28.7917C97.8566 28.7917 98.5577 28.6004 99.1943 28.2178C99.8308 27.8351 100.338 27.32 100.716 26.6725C101.094 26.0152 101.283 25.2891 101.283 24.4944C101.283 23.7094 101.094 22.9932 100.716 22.3457C100.338 21.6981 99.8308 21.183 99.1943 20.8004C98.5677 20.408 97.8666 20.2117 97.0909 20.2117Z" fill="white"/>
<path d="M56.568 17.1249H60.0745V31.8935H56.5828V30.4177C55.5585 31.6284 53.7944 32.2775 52.2036 32.2775C51.0901 32.2775 50.0467 32.0707 49.0734 31.6572C48.1003 31.2437 47.2425 30.6726 46.5001 29.9441C45.7677 29.2155 45.1907 28.3736 44.7693 27.4186C44.358 26.4635 44.1523 25.4396 44.1523 24.3467C44.1523 23.2933 44.348 22.3037 44.7393 21.3783C45.1405 20.4528 45.6974 19.6405 46.4097 18.9415C47.122 18.2424 47.9448 17.696 48.8778 17.3022C49.8109 16.9084 50.8141 16.7114 51.8876 16.7114C53.5854 16.7114 55.4832 17.1171 56.568 18.4333V17.1249ZM52.1134 28.8068C52.896 28.8068 54.0073 28.6149 54.6092 28.2309C55.2112 27.8469 55.6827 27.33 56.0238 26.6802C56.3649 26.0205 56.5355 25.2969 56.5355 24.5092C56.5355 23.7118 56.3649 22.9881 56.0238 22.3383C55.6827 21.6785 55.2062 21.1568 54.5941 20.7727C53.9922 20.3888 52.886 20.1968 52.1134 20.1968C51.3408 20.1968 50.6335 20.3938 49.9915 20.7876C49.3595 21.1715 48.8527 21.6885 48.4715 22.3383C48.1003 22.9881 47.9147 23.7118 47.9147 24.5092C47.9147 25.3067 48.1053 26.0304 48.4865 26.6802C48.8677 27.33 49.3744 27.8469 50.0065 28.2309C50.6486 28.6149 51.3509 28.8068 52.1134 28.8068Z" fill="white"/>
<path d="M0 28.6697C0 25.5436 2.56886 23.0093 5.7377 23.0093H11.4754V28.6697C11.4754 31.7957 8.90655 34.33 5.7377 34.33C2.56886 34.33 0 31.7957 0 28.6697Z" fill="#FF56A5"/>
<path d="M20.082 11.6885H5.3791C2.4083 11.6885 0 14.0643 0 16.9951C0 19.9259 2.4083 22.3017 5.3791 22.3017H9.32377C15.2653 22.3017 20.082 17.5499 20.082 11.6885Z" fill="#FF7B8A"/>
<path d="M0 5.67428C0 2.74352 2.4083 0.367676 5.3791 0.367676H24.3852C24.3852 6.22919 19.5686 10.9809 13.6271 10.9809H5.3791C2.4083 10.9809 0 8.60504 0 5.67428Z" fill="#FFB163"/>
</g>
<defs>
<clipPath id="clip0_1_47">
<rect width="105" height="38" fill="white"/>
</clipPath>
</defs>
</svg>
