<svg width="143" height="68" viewBox="0 0 143 68" fill="none" xmlns="http://www.w3.org/2000/svg">
<g clip-path="url(#clip0_1_305)">
<path d="M44.0924 19.1016V23.3048H47.1388C48.4981 23.3048 49.6002 24.3981 49.6002 25.7466C49.6002 27.0952 48.4981 28.1885 47.1388 28.1885H44.0924V43.3199H39.1698V28.1885C37.9552 28.1885 36.9707 27.2118 36.9707 26.0068V25.4864C36.9707 24.2815 37.9552 23.3048 39.1698 23.3048V19.1016C39.1698 17.9541 39.4522 16.9067 40.0171 15.9593C40.5954 14.9985 41.3688 14.238 42.3372 13.6775C43.3056 13.1038 44.3749 12.8169 45.545 12.8169C46.3924 12.8169 47.2329 12.9904 48.0669 13.3373C49.6436 13.9933 50.2494 16.2145 48.9361 17.3007C48.05 18.0335 47.0091 17.7006 45.545 17.7006C45.1549 17.7006 44.8119 17.8407 44.5161 18.1209C44.2337 18.3878 44.0924 18.7147 44.0924 19.1016Z" fill="black"/>
<path d="M52.873 43.32V18.181C52.873 15.4839 55.077 13.2974 57.7957 13.2974V43.32H52.873Z" fill="black"/>
<path d="M85.6777 43.3201V23.3051H88.8048C89.7965 23.3051 90.6004 24.1026 90.6004 25.0864C91.2863 24.3659 92.1067 23.7987 93.0617 23.3851C94.0167 22.9581 95.0457 22.7446 96.1485 22.7446C97.5473 22.7446 98.8317 23.0716 100.002 23.7254C101.185 24.3791 102.127 25.2533 102.826 26.3473C103.539 25.2533 104.481 24.3791 105.651 23.7254C106.821 23.0716 108.105 22.7446 109.504 22.7446C110.984 22.7446 112.322 23.1049 113.519 23.8254C114.73 24.5327 115.691 25.4867 116.404 26.6876C117.13 27.8752 117.493 29.2028 117.493 30.6706V43.3201H112.571V31.9716C112.571 31.1977 112.376 30.4905 111.986 29.85C111.609 29.1962 111.098 28.6758 110.452 28.2888C109.82 27.8885 109.108 27.6884 108.314 27.6884C107.52 27.6884 106.801 27.8818 106.155 28.2688C105.523 28.6423 105.012 29.1495 104.622 29.7899C104.232 30.4304 104.037 31.1577 104.037 31.9716V43.3201H99.1142V31.9716C99.1142 31.1577 98.9258 30.4304 98.5493 29.7899C98.1728 29.1495 97.6616 28.6423 97.016 28.2688C96.3704 27.8818 95.6509 27.6884 94.8573 27.6884C94.0773 27.6884 93.3644 27.8885 92.7188 28.2888C92.0732 28.6758 91.5554 29.1962 91.1653 29.85C90.7888 30.4905 90.6004 31.1977 90.6004 31.9716V43.3201H85.6777Z" fill="black"/>
<path d="M126.055 46.5193C126.055 49.2166 123.851 51.403 121.133 51.403V23.3049H123.493C124.908 23.3049 126.055 24.4429 126.055 25.8468C128.388 22.6354 132.457 22.0876 136.002 23.6051C137.279 24.1523 138.402 24.9128 139.371 25.8868C140.353 26.8476 141.113 27.9617 141.651 29.2294C142.202 30.4971 142.478 31.8581 142.478 33.3124C142.478 34.7668 142.202 36.1346 141.651 37.4155C141.113 38.6965 140.353 39.8241 139.371 40.7981C138.402 41.7588 137.279 42.5127 136.002 43.0598C133.258 44.2343 128.398 43.8974 126.055 41.5879V46.5193ZM131.805 27.4881C130.783 27.4881 129.869 27.755 129.062 28.2887C128.255 28.8091 127.622 29.5096 127.165 30.3902C126.708 31.2709 126.479 32.2449 126.479 33.3124C126.479 34.38 126.708 35.3607 127.165 36.2547C127.622 37.1353 128.255 37.8426 129.062 38.3763C129.869 38.8967 130.783 39.1569 131.805 39.1569C132.841 39.1569 133.789 38.8967 134.65 38.3763C135.511 37.8559 136.197 37.1553 136.708 36.2747C137.219 35.3807 137.474 34.3933 137.474 33.3124C137.474 32.2449 137.219 31.2709 136.708 30.3902C136.197 29.5096 135.511 28.8091 134.65 28.2887C133.803 27.755 132.854 27.4881 131.805 27.4881Z" fill="black"/>
<path d="M76.9997 23.2899H81.7418V43.3752H77.0197V41.3681C75.6344 43.0146 73.2487 43.8974 71.0974 43.8974C69.5915 43.8974 68.1804 43.6162 66.8642 43.0538C65.5481 42.4915 64.3881 41.7147 63.384 40.724C62.3935 39.7331 61.6133 38.5882 61.0433 37.2893C60.4872 35.9904 60.209 34.5978 60.209 33.1115C60.209 31.6789 60.4736 30.3331 61.0028 29.0744C61.5454 27.8158 62.2984 26.7111 63.2618 25.7604C64.2251 24.8097 65.3379 24.0666 66.5996 23.531C67.8615 22.9954 69.2182 22.7275 70.67 22.7275C72.9661 22.7275 75.5326 23.2793 76.9997 25.0693V23.2899ZM70.9754 39.1773C72.0338 39.1773 73.5366 38.9163 74.3506 38.394C75.1648 37.8718 75.8024 37.1688 76.2637 36.2851C76.725 35.3879 76.9557 34.4038 76.9557 33.3325C76.9557 32.248 76.725 31.2638 76.2637 30.38C75.8024 29.4828 75.158 28.7733 74.3302 28.2509C73.5162 27.7288 72.0202 27.4677 70.9754 27.4677C69.9306 27.4677 68.974 27.7355 68.1057 28.2711C67.251 28.7933 66.5656 29.4963 66.0502 30.38C65.5481 31.2638 65.2971 32.248 65.2971 33.3325C65.2971 34.4171 65.5549 35.4013 66.0704 36.2851C66.586 37.1688 67.2712 37.8718 68.1261 38.394C68.9944 38.9163 69.9441 39.1773 70.9754 39.1773Z" fill="black"/>
<path d="M0.5 38.9906C0.5 34.7391 3.97407 31.2925 8.25956 31.2925H16.0191V38.9906C16.0191 43.2421 12.5451 46.6887 8.25956 46.6887C3.97407 46.6887 0.5 43.2421 0.5 38.9906Z" fill="#FF56A5"/>
<path d="M27.6585 15.8965H7.77459C3.75694 15.8965 0.5 19.1276 0.5 23.1135C0.5 27.0994 3.75694 30.3304 7.77459 30.3304H13.1093C21.1445 30.3304 27.6585 23.8681 27.6585 15.8965Z" fill="#FF7B8A"/>
<path d="M0.5 7.71698C0.5 3.73115 3.75694 0.5 7.77459 0.5H33.4781C33.4781 8.47167 26.9642 14.934 18.929 14.934H7.77459C3.75694 14.934 0.5 11.7028 0.5 7.71698Z" fill="#FFB163"/>
</g>
<defs>
<clipPath id="clip0_1_305">
<rect width="142" height="68" fill="white" transform="translate(0.5)"/>
</clipPath>
</defs>
</svg>
