<svg width="142" height="52" viewBox="0 0 142 52" fill="none" xmlns="http://www.w3.org/2000/svg">
<g clip-path="url(#clip0_1_326)">
<path d="M43.5915 19.1016V23.3048H46.6379C47.9971 23.3048 49.0992 24.3981 49.0992 25.7466C49.0992 27.0952 47.9971 28.1885 46.6379 28.1885H43.5915V43.3199H38.6688V28.1885C37.4542 28.1885 36.4697 27.2118 36.4697 26.0068V25.4864C36.4697 24.2815 37.4542 23.3048 38.6688 23.3048V19.1016C38.6688 17.9541 38.9512 16.9067 39.5161 15.9593C40.0944 14.9985 40.8678 14.238 41.8362 13.6775C42.8046 13.1038 43.8739 12.8169 45.044 12.8169C45.8914 12.8169 46.7319 12.9904 47.5659 13.3373C49.1426 13.9933 49.7485 16.2145 48.4352 17.3007C47.549 18.0335 46.5081 17.7006 45.044 17.7006C44.6539 17.7006 44.311 17.8407 44.0151 18.1209C43.7327 18.3878 43.5915 18.7147 43.5915 19.1016Z" fill="black"/>
<path d="M52.373 43.32V18.181C52.373 15.4839 54.577 13.2974 57.2957 13.2974V43.32H52.373Z" fill="black"/>
<path d="M85.1777 43.3201V23.3051H88.3048C89.2965 23.3051 90.1004 24.1026 90.1004 25.0864C90.7863 24.3659 91.6067 23.7987 92.5617 23.3851C93.5167 22.9581 94.5457 22.7446 95.6485 22.7446C97.0473 22.7446 98.3317 23.0716 99.5019 23.7254C100.685 24.3791 101.627 25.2533 102.326 26.3473C103.039 25.2533 103.981 24.3791 105.151 23.7254C106.321 23.0716 107.605 22.7446 109.004 22.7446C110.484 22.7446 111.822 23.1049 113.019 23.8254C114.23 24.5327 115.191 25.4867 115.904 26.6876C116.63 27.8752 116.993 29.2028 116.993 30.6706V43.3201H112.071V31.9716C112.071 31.1977 111.876 30.4905 111.486 29.85C111.109 29.1962 110.598 28.6758 109.952 28.2888C109.32 27.8885 108.608 27.6884 107.814 27.6884C107.02 27.6884 106.301 27.8818 105.655 28.2688C105.023 28.6423 104.512 29.1495 104.122 29.7899C103.732 30.4304 103.537 31.1577 103.537 31.9716V43.3201H98.6142V31.9716C98.6142 31.1577 98.4258 30.4304 98.0493 29.7899C97.6728 29.1495 97.1616 28.6423 96.516 28.2688C95.8704 27.8818 95.1509 27.6884 94.3573 27.6884C93.5773 27.6884 92.8644 27.8885 92.2188 28.2888C91.5732 28.6758 91.0554 29.1962 90.6653 29.85C90.2888 30.4905 90.1004 31.1977 90.1004 31.9716V43.3201H85.1777Z" fill="black"/>
<path d="M125.555 46.5193C125.555 49.2166 123.351 51.403 120.632 51.403V23.3049H122.993C124.408 23.3049 125.555 24.4429 125.555 25.8468C127.888 22.6354 131.957 22.0876 135.501 23.6051C136.779 24.1523 137.902 24.9128 138.87 25.8868C139.852 26.8476 140.612 27.9617 141.15 29.2294C141.701 30.4971 141.977 31.8581 141.977 33.3124C141.977 34.7668 141.701 36.1346 141.15 37.4155C140.612 38.6965 139.852 39.8241 138.87 40.7981C137.902 41.7588 136.779 42.5127 135.501 43.0598C132.758 44.2343 127.897 43.8974 125.555 41.5879V46.5193ZM131.305 27.4881C130.283 27.4881 129.368 27.755 128.561 28.2887C127.754 28.8091 127.122 29.5096 126.665 30.3902C126.207 31.2709 125.979 32.2449 125.979 33.3124C125.979 34.38 126.207 35.3607 126.665 36.2547C127.122 37.1353 127.754 37.8426 128.561 38.3763C129.368 38.8967 130.283 39.1569 131.305 39.1569C132.34 39.1569 133.289 38.8967 134.149 38.3763C135.01 37.8559 135.696 37.1553 136.207 36.2747C136.718 35.3807 136.974 34.3933 136.974 33.3124C136.974 32.2449 136.718 31.2709 136.207 30.3902C135.696 29.5096 135.01 28.8091 134.149 28.2887C133.302 27.755 132.354 27.4881 131.305 27.4881Z" fill="black"/>
<path d="M76.5007 23.2899H81.2427V43.3752H76.5207V41.3681C75.1354 43.0146 72.7497 43.8974 70.5984 43.8974C69.0924 43.8974 67.6814 43.6162 66.3651 43.0538C65.0491 42.4915 63.8891 41.7147 62.885 40.724C61.8945 39.7331 61.1143 38.5882 60.5443 37.2893C59.9881 35.9904 59.71 34.5978 59.71 33.1115C59.71 31.6789 59.9746 30.3331 60.5038 29.0744C61.0464 27.8158 61.7994 26.7111 62.7628 25.7604C63.7261 24.8097 64.8388 24.0666 66.1005 23.531C67.3624 22.9954 68.7192 22.7275 70.171 22.7275C72.4671 22.7275 75.0335 23.2793 76.5007 25.0693V23.2899ZM70.4764 39.1773C71.5348 39.1773 73.0376 38.9163 73.8516 38.394C74.6657 37.8718 75.3034 37.1688 75.7647 36.2851C76.226 35.3879 76.4566 34.4038 76.4566 33.3325C76.4566 32.248 76.226 31.2638 75.7647 30.38C75.3034 29.4828 74.659 28.7733 73.8312 28.2509C73.0172 27.7288 71.5212 27.4677 70.4764 27.4677C69.4315 27.4677 68.475 27.7355 67.6067 28.2711C66.752 28.7933 66.0666 29.4963 65.5512 30.38C65.0491 31.2638 64.7981 32.248 64.7981 33.3325C64.7981 34.4171 65.0559 35.4013 65.5713 36.2851C66.087 37.1688 66.7721 37.8718 67.627 38.394C68.4953 38.9163 69.4451 39.1773 70.4764 39.1773Z" fill="black"/>
<path d="M0 38.9906C0 34.7391 3.47407 31.2925 7.75956 31.2925H15.5191V38.9906C15.5191 43.2421 12.0451 46.6887 7.75956 46.6887C3.47407 46.6887 0 43.2421 0 38.9906Z" fill="#FF56A5"/>
<path d="M27.1585 15.8965H7.27459C3.25694 15.8965 0 19.1276 0 23.1135C0 27.0994 3.25694 30.3304 7.27459 30.3304H12.6093C20.6445 30.3304 27.1585 23.8681 27.1585 15.8965Z" fill="#FF7B8A"/>
<path d="M0 7.71698C0 3.73115 3.25694 0.5 7.27459 0.5H32.9781C32.9781 8.47167 26.4642 14.934 18.429 14.934H7.27459C3.25694 14.934 0 11.7028 0 7.71698Z" fill="#FFB163"/>
</g>
<defs>
<clipPath id="clip0_1_326">
<rect width="142" height="52" fill="white"/>
</clipPath>
</defs>
</svg>
